<svg xmlns="http://www.w3.org/2000/svg" width="1920" height="1080" viewBox="0 0 1920 1080">
  <defs>
    <linearGradient id="bg" x1="0" y1="0" x2="0" y2="1">
      <stop offset="0%" stop-color="#08131E"/>
      <stop offset="55%" stop-color="#0A1D2C"/>
      <stop offset="100%" stop-color="#041018"/>
    </linearGradient>
    <radialGradient id="glow" cx="50%" cy="40%" r="60%">
      <stop offset="0%" stop-color="#1A9E8A" stop-opacity="0.35"/>
      <stop offset="100%" stop-color="#1A9E8A" stop-opacity="0"/>
    </radialGradient>
    <linearGradient id="floor" x1="0" y1="0" x2="1" y2="0">
      <stop offset="0%" stop-color="#4C3220"/>
      <stop offset="50%" stop-color="#7A4A2A"/>
      <stop offset="100%" stop-color="#4C3220"/>
    </linearGradient>
  </defs>

  <rect width="1920" height="1080" fill="url(#bg)"/>
  <rect width="1920" height="1080" fill="url(#glow)"/>

  <rect x="300" y="170" width="1320" height="720" rx="20" fill="#101A24" stroke="#2E5A6D" stroke-width="5" opacity="0.85"/>
  <rect x="360" y="230" width="1200" height="620" rx="10" fill="#121F2A" stroke="#3E6F84" stroke-width="2" opacity="0.7"/>

  <rect x="500" y="620" width="920" height="34" fill="url(#floor)" opacity="0.9"/>
  <rect x="500" y="654" width="920" height="9" fill="#2E2018" opacity="0.7"/>

  <circle cx="530" cy="350" r="42" fill="none" stroke="#D4C174" stroke-width="8"/>
  <rect x="567" y="343" width="110" height="14" rx="4" fill="#D4C174"/>
  <rect x="655" y="353" width="16" height="34" fill="#D4C174"/>
  <rect x="682" y="353" width="16" height="24" fill="#D4C174"/>

  <rect x="1270" y="310" width="160" height="310" rx="3" fill="#6F3E1E"/>
  <rect x="1286" y="326" width="128" height="280" rx="2" fill="#8A5128"/>
  <circle cx="1393" cy="475" r="10" fill="#D7B057"/>

  <text x="960" y="305" text-anchor="middle" fill="#7BF2D2" font-size="74" font-family="Segoe UI, Arial, sans-serif" font-weight="700" letter-spacing="5">3D ESCAPE ROOM</text>
  <text x="960" y="370" text-anchor="middle" fill="#D7EAF2" font-size="30" font-family="Segoe UI, Arial, sans-serif" letter-spacing="2">Rooms • Puzzle Keys • Survival Ground</text>
  <text x="960" y="760" text-anchor="middle" fill="#A6C7D6" font-size="24" font-family="Segoe UI, Arial, sans-serif">Press Enter to Start</text>
</svg>
